<mxfile host="app.diagrams.net" modified="2023-04-21T15:20:00.574Z" agent="Mozilla/5.0 (Windows NT 10.0; Win64; x64) AppleWebKit/537.36 (KHTML, like Gecko) Chrome/112.0.0.0 Safari/537.36" etag="NfmUeAMOutX0Go4j6A3P" version="21.2.1" type="device">
  <diagram name="Page-1" id="03018318-947c-dd8e-b7a3-06fadd420f32">
    <mxGraphModel dx="1034" dy="430" grid="1" gridSize="10" guides="1" tooltips="1" connect="1" arrows="1" fold="1" page="1" pageScale="1" pageWidth="1100" pageHeight="850" background="none" math="0" shadow="0">
      <root>
        <mxCell id="0" />
        <mxCell id="1" parent="0" />
        <mxCell id="677b7b8949515195-1" value="" style="whiteSpace=wrap;html=1;rounded=0;shadow=0;labelBackgroundColor=none;strokeColor=#000000;strokeWidth=1;fillColor=none;fontFamily=Verdana;fontSize=12;fontColor=#000000;align=center;comic=1;" parent="1" vertex="1">
          <mxGeometry x="10" y="20" width="1070" height="820" as="geometry" />
        </mxCell>
        <mxCell id="677b7b8949515195-8" value="" style="whiteSpace=wrap;html=1;rounded=0;shadow=0;labelBackgroundColor=none;strokeWidth=1;fillColor=none;fontFamily=Verdana;fontSize=12;align=center;comic=1;" parent="1" vertex="1">
          <mxGeometry x="30" y="30" width="140" height="780" as="geometry" />
        </mxCell>
        <mxCell id="qz_svecnsdqs3by7-r_0-2" value="Vet Clinic Name" style="whiteSpace=wrap;html=1;rounded=0;shadow=0;labelBackgroundColor=none;strokeWidth=1;fontFamily=Verdana;fontSize=28;align=center;comic=1;" parent="1" vertex="1">
          <mxGeometry x="180" y="30" width="680" height="100" as="geometry" />
        </mxCell>
        <mxCell id="qz_svecnsdqs3by7-r_0-8" value="" style="whiteSpace=wrap;html=1;rounded=0;shadow=0;labelBackgroundColor=none;strokeWidth=1;fontFamily=Verdana;fontSize=28;align=center;comic=1;" parent="1" vertex="1">
          <mxGeometry x="180" y="732" width="870" height="60" as="geometry" />
        </mxCell>
        <mxCell id="qz_svecnsdqs3by7-r_0-9" value="" style="verticalLabelPosition=bottom;shadow=0;dashed=0;align=center;html=1;verticalAlign=top;strokeWidth=1;shape=mxgraph.mockup.misc.help_icon;" parent="1" vertex="1">
          <mxGeometry x="730" y="746" width="32" height="32" as="geometry" />
        </mxCell>
        <mxCell id="qz_svecnsdqs3by7-r_0-10" value="" style="verticalLabelPosition=bottom;shadow=0;dashed=0;align=center;html=1;verticalAlign=top;strokeWidth=1;shape=mxgraph.mockup.misc.help_icon;" parent="1" vertex="1">
          <mxGeometry x="679" y="746" width="32" height="32" as="geometry" />
        </mxCell>
        <mxCell id="qz_svecnsdqs3by7-r_0-11" value="" style="verticalLabelPosition=bottom;shadow=0;dashed=0;align=center;html=1;verticalAlign=top;strokeWidth=1;shape=mxgraph.mockup.misc.help_icon;" parent="1" vertex="1">
          <mxGeometry x="778" y="746" width="32" height="32" as="geometry" />
        </mxCell>
        <mxCell id="qz_svecnsdqs3by7-r_0-12" value="Cookie Policy" style="text;html=1;points=[];align=left;verticalAlign=top;spacingTop=-4;fontSize=14;fontFamily=Verdana" parent="1" vertex="1">
          <mxGeometry x="190" y="741" width="100" height="20" as="geometry" />
        </mxCell>
        <mxCell id="qz_svecnsdqs3by7-r_0-13" value="Vet Accreditation, Company Registration, Copyright, Registered Address" style="text;html=1;points=[];align=left;verticalAlign=top;spacingTop=-4;fontSize=14;fontFamily=Verdana;fillColor=#f5f5f5;fontColor=#333333;strokeColor=none;" parent="1" vertex="1">
          <mxGeometry x="180" y="802" width="860" height="20" as="geometry" />
        </mxCell>
        <mxCell id="qz_svecnsdqs3by7-r_0-14" value="Privacy Policy" style="text;html=1;points=[];align=left;verticalAlign=top;spacingTop=-4;fontSize=14;fontFamily=Verdana" parent="1" vertex="1">
          <mxGeometry x="190" y="761" width="100" height="20" as="geometry" />
        </mxCell>
        <mxCell id="qz_svecnsdqs3by7-r_0-15" value="Terms of Use" style="text;html=1;points=[];align=left;verticalAlign=top;spacingTop=-4;fontSize=14;fontFamily=Verdana" parent="1" vertex="1">
          <mxGeometry x="370" y="741" width="100" height="20" as="geometry" />
        </mxCell>
        <mxCell id="qz_svecnsdqs3by7-r_0-16" value="Complaints Policy" style="text;html=1;points=[];align=left;verticalAlign=top;spacingTop=-4;fontSize=14;fontFamily=Verdana" parent="1" vertex="1">
          <mxGeometry x="370" y="761" width="100" height="20" as="geometry" />
        </mxCell>
        <mxCell id="qz_svecnsdqs3by7-r_0-17" value="&lt;div align=&quot;center&quot;&gt;&lt;font style=&quot;font-size: 14px;&quot;&gt;Logout&lt;/font&gt;&lt;/div&gt;" style="whiteSpace=wrap;html=1;rounded=0;shadow=0;labelBackgroundColor=none;strokeWidth=1;fontFamily=Verdana;fontSize=28;align=center;comic=1;" parent="1" vertex="1">
          <mxGeometry x="900" y="40" width="120" height="80" as="geometry" />
        </mxCell>
        <mxCell id="qz_svecnsdqs3by7-r_0-18" value="LOGO" style="whiteSpace=wrap;html=1;rounded=0;shadow=0;labelBackgroundColor=none;strokeWidth=1;fontFamily=Verdana;fontSize=28;align=center;comic=1;" parent="1" vertex="1">
          <mxGeometry x="40" y="50" width="120" height="80" as="geometry" />
        </mxCell>
        <mxCell id="qz_svecnsdqs3by7-r_0-19" value="Home" style="text;html=1;points=[];align=left;verticalAlign=top;spacingTop=-4;fontSize=14;fontFamily=Verdana" parent="1" vertex="1">
          <mxGeometry x="40" y="160" width="110" height="20" as="geometry" />
        </mxCell>
        <mxCell id="qz_svecnsdqs3by7-r_0-20" value="About Us" style="text;html=1;points=[];align=left;verticalAlign=top;spacingTop=-4;fontSize=14;fontFamily=Verdana" parent="1" vertex="1">
          <mxGeometry x="40" y="190" width="110" height="20" as="geometry" />
        </mxCell>
        <mxCell id="qz_svecnsdqs3by7-r_0-21" value="Products" style="text;html=1;points=[];align=left;verticalAlign=top;spacingTop=-4;fontSize=14;fontFamily=Verdana" parent="1" vertex="1">
          <mxGeometry x="40" y="220" width="110" height="20" as="geometry" />
        </mxCell>
        <mxCell id="qz_svecnsdqs3by7-r_0-22" value="Account" style="text;html=1;points=[];align=left;verticalAlign=top;spacingTop=-4;fontSize=14;fontFamily=Verdana" parent="1" vertex="1">
          <mxGeometry x="40" y="250" width="110" height="20" as="geometry" />
        </mxCell>
        <mxCell id="qz_svecnsdqs3by7-r_0-23" value="Pet Advice" style="text;html=1;points=[];align=left;verticalAlign=top;spacingTop=-4;fontSize=14;fontFamily=Verdana" parent="1" vertex="1">
          <mxGeometry x="40" y="280" width="110" height="20" as="geometry" />
        </mxCell>
        <mxCell id="qz_svecnsdqs3by7-r_0-25" value="Admin" style="text;html=1;points=[];align=left;verticalAlign=top;spacingTop=-4;fontSize=14;fontFamily=Verdana" parent="1" vertex="1">
          <mxGeometry x="40" y="782" width="110" height="20" as="geometry" />
        </mxCell>
        <mxCell id="jpjo5LjJ9VRGCp0pwDF1-49" value="" style="strokeWidth=1;shadow=0;dashed=0;align=center;html=1;shape=mxgraph.mockup.forms.rrect;rSize=0;strokeColor=#999999;fillColor=#ffffff;movable=1;resizable=1;rotatable=1;deletable=1;editable=1;locked=0;connectable=1;" parent="1" vertex="1">
          <mxGeometry x="200" y="120" width="330" height="540" as="geometry" />
        </mxCell>
        <mxCell id="jpjo5LjJ9VRGCp0pwDF1-50" value="ORDERS" style="strokeWidth=1;shadow=0;dashed=0;align=center;html=1;shape=mxgraph.mockup.forms.anchor;fontSize=12;fontColor=#666666;align=left;resizeWidth=1;spacingLeft=0;" parent="jpjo5LjJ9VRGCp0pwDF1-49" vertex="1">
          <mxGeometry width="165" height="20" relative="1" as="geometry">
            <mxPoint x="10" y="10" as="offset" />
          </mxGeometry>
        </mxCell>
        <mxCell id="jpjo5LjJ9VRGCp0pwDF1-51" value="" style="shape=line;strokeColor=#ddeeff;strokeWidth=2;html=1;resizeWidth=1;" parent="jpjo5LjJ9VRGCp0pwDF1-49" vertex="1">
          <mxGeometry width="297" height="10" relative="1" as="geometry">
            <mxPoint x="10" y="30" as="offset" />
          </mxGeometry>
        </mxCell>
        <mxCell id="jpjo5LjJ9VRGCp0pwDF1-52" value="order id: 9" style="strokeWidth=1;shadow=0;dashed=0;align=center;html=1;shape=mxgraph.mockup.forms.anchor;fontSize=12;fontColor=#666666;align=left;resizeWidth=1;spacingLeft=0;" parent="jpjo5LjJ9VRGCp0pwDF1-49" vertex="1">
          <mxGeometry width="165" height="20" relative="1" as="geometry">
            <mxPoint x="15" y="40" as="offset" />
          </mxGeometry>
        </mxCell>
        <mxCell id="jpjo5LjJ9VRGCp0pwDF1-54" value="product code: 14" style="strokeWidth=1;shadow=0;dashed=0;align=center;html=1;shape=mxgraph.mockup.forms.anchor;fontSize=12;fontColor=#666666;align=left;resizeWidth=1;spacingLeft=0;" parent="jpjo5LjJ9VRGCp0pwDF1-49" vertex="1">
          <mxGeometry width="165" height="20" relative="1" as="geometry">
            <mxPoint x="15" y="65" as="offset" />
          </mxGeometry>
        </mxCell>
        <mxCell id="jpjo5LjJ9VRGCp0pwDF1-56" value="Click to update and save" style="strokeWidth=1;shadow=0;dashed=0;align=center;html=1;shape=mxgraph.mockup.forms.rrect;rSize=5;strokeColor=none;fontColor=#ffffff;fillColor=#66bbff;fontSize=16;fontStyle=1;" parent="jpjo5LjJ9VRGCp0pwDF1-49" vertex="1">
          <mxGeometry y="1" width="220" height="29" relative="1" as="geometry">
            <mxPoint x="15" y="-180" as="offset" />
          </mxGeometry>
        </mxCell>
        <mxCell id="jpjo5LjJ9VRGCp0pwDF1-81" value="Collected" style="strokeWidth=1;shadow=0;dashed=0;align=center;html=1;shape=mxgraph.mockup.forms.anchor;fontSize=12;fontColor=#666666;align=left;resizeWidth=1;spacingLeft=0;" parent="jpjo5LjJ9VRGCp0pwDF1-49" vertex="1">
          <mxGeometry x="14.850000000000001" y="300.0027731092437" width="165" height="24.54545454545454" as="geometry" />
        </mxCell>
        <mxCell id="jpjo5LjJ9VRGCp0pwDF1-82" value="collected" style="strokeWidth=1;shadow=0;dashed=0;align=center;html=1;shape=mxgraph.mockup.forms.rrect;rSize=0;strokeColor=#999999;fontColor=#666666;align=left;spacingLeft=5;resizeWidth=1;" parent="jpjo5LjJ9VRGCp0pwDF1-49" vertex="1">
          <mxGeometry x="14.85" y="330" width="245.15" height="17.25" as="geometry" />
        </mxCell>
        <mxCell id="HgwQW7kERGZw7Xsp1JHA-1" value="" style="strokeWidth=1;shadow=0;dashed=0;align=center;html=1;shape=mxgraph.mockup.forms.anchor;fontSize=12;fontColor=#666666;align=left;resizeWidth=1;spacingLeft=0;" parent="jpjo5LjJ9VRGCp0pwDF1-49" vertex="1">
          <mxGeometry x="120" y="508.8461538461538" width="205" height="26.428846153846152" as="geometry" />
        </mxCell>
        <mxCell id="msRCoOxnUzmI-tInsUp5-1" value="" style="strokeWidth=1;shadow=0;dashed=0;align=center;html=1;shape=mxgraph.mockup.forms.anchor;fontSize=12;fontColor=#666666;align=left;resizeWidth=1;spacingLeft=0;fontStyle=1" vertex="1" parent="jpjo5LjJ9VRGCp0pwDF1-49">
          <mxGeometry x="14.849999999999994" y="65" width="165" height="20" as="geometry" />
        </mxCell>
        <mxCell id="msRCoOxnUzmI-tInsUp5-2" value="product name: Cat teaser" style="strokeWidth=1;shadow=0;dashed=0;align=center;html=1;shape=mxgraph.mockup.forms.anchor;fontSize=12;fontColor=#666666;align=left;resizeWidth=1;spacingLeft=0;" vertex="1" parent="jpjo5LjJ9VRGCp0pwDF1-49">
          <mxGeometry x="14.849999999999994" y="95" width="165" height="20" as="geometry" />
        </mxCell>
        <mxCell id="msRCoOxnUzmI-tInsUp5-3" value="product cost: £14.99" style="strokeWidth=1;shadow=0;dashed=0;align=center;html=1;shape=mxgraph.mockup.forms.anchor;fontSize=12;fontColor=#666666;align=left;resizeWidth=1;spacingLeft=0;" vertex="1" parent="jpjo5LjJ9VRGCp0pwDF1-49">
          <mxGeometry x="14.849999999999994" y="120" width="165" height="20" as="geometry" />
        </mxCell>
        <mxCell id="msRCoOxnUzmI-tInsUp5-5" value="quantity ordered: 2" style="strokeWidth=1;shadow=0;dashed=0;align=center;html=1;shape=mxgraph.mockup.forms.anchor;fontSize=12;fontColor=#666666;align=left;resizeWidth=1;spacingLeft=0;" vertex="1" parent="jpjo5LjJ9VRGCp0pwDF1-49">
          <mxGeometry x="14.849999999999994" y="150" width="165" height="20" as="geometry" />
        </mxCell>
        <mxCell id="msRCoOxnUzmI-tInsUp5-6" value="total cost: £29.98" style="strokeWidth=1;shadow=0;dashed=0;align=center;html=1;shape=mxgraph.mockup.forms.anchor;fontSize=12;fontColor=#666666;align=left;resizeWidth=1;spacingLeft=0;" vertex="1" parent="jpjo5LjJ9VRGCp0pwDF1-49">
          <mxGeometry x="14.849999999999994" y="180" width="165" height="20" as="geometry" />
        </mxCell>
        <mxCell id="msRCoOxnUzmI-tInsUp5-7" value="customer name: Diane Nichols" style="strokeWidth=1;shadow=0;dashed=0;align=center;html=1;shape=mxgraph.mockup.forms.anchor;fontSize=12;fontColor=#666666;align=left;resizeWidth=1;spacingLeft=0;" vertex="1" parent="jpjo5LjJ9VRGCp0pwDF1-49">
          <mxGeometry x="14.849999999999994" y="210" width="165" height="20" as="geometry" />
        </mxCell>
        <mxCell id="msRCoOxnUzmI-tInsUp5-8" value="order date: 12.03.23" style="strokeWidth=1;shadow=0;dashed=0;align=center;html=1;shape=mxgraph.mockup.forms.anchor;fontSize=12;fontColor=#666666;align=left;resizeWidth=1;spacingLeft=0;" vertex="1" parent="jpjo5LjJ9VRGCp0pwDF1-49">
          <mxGeometry x="14.849999999999994" y="245" width="165" height="20" as="geometry" />
        </mxCell>
        <mxCell id="msRCoOxnUzmI-tInsUp5-9" value="collection date: 17.03.23" style="strokeWidth=1;shadow=0;dashed=0;align=center;html=1;shape=mxgraph.mockup.forms.anchor;fontSize=12;fontColor=#666666;align=left;resizeWidth=1;spacingLeft=0;" vertex="1" parent="jpjo5LjJ9VRGCp0pwDF1-49">
          <mxGeometry x="14.849999999999994" y="270" width="165" height="20" as="geometry" />
        </mxCell>
        <mxCell id="msRCoOxnUzmI-tInsUp5-10" value="ideally this is drop down choices" style="shape=callout;whiteSpace=wrap;html=1;perimeter=calloutPerimeter;" vertex="1" parent="jpjo5LjJ9VRGCp0pwDF1-49">
          <mxGeometry x="190" y="260" width="120" height="80" as="geometry" />
        </mxCell>
        <mxCell id="msRCoOxnUzmI-tInsUp5-11" value="" style="strokeWidth=1;shadow=0;dashed=0;align=center;html=1;shape=mxgraph.mockup.forms.rrect;rSize=0;strokeColor=#999999;fillColor=#ffffff;movable=1;resizable=1;rotatable=1;deletable=1;editable=1;locked=0;connectable=1;" vertex="1" parent="1">
          <mxGeometry x="210" y="130" width="330" height="540" as="geometry" />
        </mxCell>
        <mxCell id="msRCoOxnUzmI-tInsUp5-12" value="ORDERS" style="strokeWidth=1;shadow=0;dashed=0;align=center;html=1;shape=mxgraph.mockup.forms.anchor;fontSize=12;fontColor=#666666;align=left;resizeWidth=1;spacingLeft=0;" vertex="1" parent="msRCoOxnUzmI-tInsUp5-11">
          <mxGeometry width="165" height="20" relative="1" as="geometry">
            <mxPoint x="10" y="10" as="offset" />
          </mxGeometry>
        </mxCell>
        <mxCell id="msRCoOxnUzmI-tInsUp5-13" value="" style="shape=line;strokeColor=#ddeeff;strokeWidth=2;html=1;resizeWidth=1;" vertex="1" parent="msRCoOxnUzmI-tInsUp5-11">
          <mxGeometry width="297" height="10" relative="1" as="geometry">
            <mxPoint x="10" y="30" as="offset" />
          </mxGeometry>
        </mxCell>
        <mxCell id="msRCoOxnUzmI-tInsUp5-14" value="order id: 9" style="strokeWidth=1;shadow=0;dashed=0;align=center;html=1;shape=mxgraph.mockup.forms.anchor;fontSize=12;fontColor=#666666;align=left;resizeWidth=1;spacingLeft=0;" vertex="1" parent="msRCoOxnUzmI-tInsUp5-11">
          <mxGeometry width="165" height="20" relative="1" as="geometry">
            <mxPoint x="15" y="40" as="offset" />
          </mxGeometry>
        </mxCell>
        <mxCell id="msRCoOxnUzmI-tInsUp5-15" value="product code: 14" style="strokeWidth=1;shadow=0;dashed=0;align=center;html=1;shape=mxgraph.mockup.forms.anchor;fontSize=12;fontColor=#666666;align=left;resizeWidth=1;spacingLeft=0;" vertex="1" parent="msRCoOxnUzmI-tInsUp5-11">
          <mxGeometry width="165" height="20" relative="1" as="geometry">
            <mxPoint x="15" y="65" as="offset" />
          </mxGeometry>
        </mxCell>
        <mxCell id="msRCoOxnUzmI-tInsUp5-16" value="Click to update and save" style="strokeWidth=1;shadow=0;dashed=0;align=center;html=1;shape=mxgraph.mockup.forms.rrect;rSize=5;strokeColor=none;fontColor=#ffffff;fillColor=#66bbff;fontSize=16;fontStyle=1;" vertex="1" parent="msRCoOxnUzmI-tInsUp5-11">
          <mxGeometry y="1" width="220" height="29" relative="1" as="geometry">
            <mxPoint x="15" y="-180" as="offset" />
          </mxGeometry>
        </mxCell>
        <mxCell id="msRCoOxnUzmI-tInsUp5-17" value="Collected" style="strokeWidth=1;shadow=0;dashed=0;align=center;html=1;shape=mxgraph.mockup.forms.anchor;fontSize=12;fontColor=#666666;align=left;resizeWidth=1;spacingLeft=0;" vertex="1" parent="msRCoOxnUzmI-tInsUp5-11">
          <mxGeometry x="14.850000000000001" y="300.0027731092437" width="165" height="24.54545454545454" as="geometry" />
        </mxCell>
        <mxCell id="msRCoOxnUzmI-tInsUp5-18" value="collected" style="strokeWidth=1;shadow=0;dashed=0;align=center;html=1;shape=mxgraph.mockup.forms.rrect;rSize=0;strokeColor=#999999;fontColor=#666666;align=left;spacingLeft=5;resizeWidth=1;" vertex="1" parent="msRCoOxnUzmI-tInsUp5-11">
          <mxGeometry x="14.85" y="330" width="245.15" height="17.25" as="geometry" />
        </mxCell>
        <mxCell id="msRCoOxnUzmI-tInsUp5-19" value="" style="strokeWidth=1;shadow=0;dashed=0;align=center;html=1;shape=mxgraph.mockup.forms.anchor;fontSize=12;fontColor=#666666;align=left;resizeWidth=1;spacingLeft=0;" vertex="1" parent="msRCoOxnUzmI-tInsUp5-11">
          <mxGeometry x="120" y="508.8461538461538" width="205" height="26.428846153846152" as="geometry" />
        </mxCell>
        <mxCell id="msRCoOxnUzmI-tInsUp5-20" value="" style="strokeWidth=1;shadow=0;dashed=0;align=center;html=1;shape=mxgraph.mockup.forms.anchor;fontSize=12;fontColor=#666666;align=left;resizeWidth=1;spacingLeft=0;fontStyle=1" vertex="1" parent="msRCoOxnUzmI-tInsUp5-11">
          <mxGeometry x="14.849999999999994" y="65" width="165" height="20" as="geometry" />
        </mxCell>
        <mxCell id="msRCoOxnUzmI-tInsUp5-21" value="product name: Cat teaser" style="strokeWidth=1;shadow=0;dashed=0;align=center;html=1;shape=mxgraph.mockup.forms.anchor;fontSize=12;fontColor=#666666;align=left;resizeWidth=1;spacingLeft=0;" vertex="1" parent="msRCoOxnUzmI-tInsUp5-11">
          <mxGeometry x="14.849999999999994" y="95" width="165" height="20" as="geometry" />
        </mxCell>
        <mxCell id="msRCoOxnUzmI-tInsUp5-22" value="product cost: £14.99" style="strokeWidth=1;shadow=0;dashed=0;align=center;html=1;shape=mxgraph.mockup.forms.anchor;fontSize=12;fontColor=#666666;align=left;resizeWidth=1;spacingLeft=0;" vertex="1" parent="msRCoOxnUzmI-tInsUp5-11">
          <mxGeometry x="14.849999999999994" y="120" width="165" height="20" as="geometry" />
        </mxCell>
        <mxCell id="msRCoOxnUzmI-tInsUp5-23" value="quantity ordered: 2" style="strokeWidth=1;shadow=0;dashed=0;align=center;html=1;shape=mxgraph.mockup.forms.anchor;fontSize=12;fontColor=#666666;align=left;resizeWidth=1;spacingLeft=0;" vertex="1" parent="msRCoOxnUzmI-tInsUp5-11">
          <mxGeometry x="14.849999999999994" y="150" width="165" height="20" as="geometry" />
        </mxCell>
        <mxCell id="msRCoOxnUzmI-tInsUp5-24" value="total cost: £29.98" style="strokeWidth=1;shadow=0;dashed=0;align=center;html=1;shape=mxgraph.mockup.forms.anchor;fontSize=12;fontColor=#666666;align=left;resizeWidth=1;spacingLeft=0;" vertex="1" parent="msRCoOxnUzmI-tInsUp5-11">
          <mxGeometry x="14.849999999999994" y="180" width="165" height="20" as="geometry" />
        </mxCell>
        <mxCell id="msRCoOxnUzmI-tInsUp5-25" value="customer name: Diane Nichols" style="strokeWidth=1;shadow=0;dashed=0;align=center;html=1;shape=mxgraph.mockup.forms.anchor;fontSize=12;fontColor=#666666;align=left;resizeWidth=1;spacingLeft=0;" vertex="1" parent="msRCoOxnUzmI-tInsUp5-11">
          <mxGeometry x="14.849999999999994" y="210" width="165" height="20" as="geometry" />
        </mxCell>
        <mxCell id="msRCoOxnUzmI-tInsUp5-26" value="order date: 12.03.23" style="strokeWidth=1;shadow=0;dashed=0;align=center;html=1;shape=mxgraph.mockup.forms.anchor;fontSize=12;fontColor=#666666;align=left;resizeWidth=1;spacingLeft=0;" vertex="1" parent="msRCoOxnUzmI-tInsUp5-11">
          <mxGeometry x="14.849999999999994" y="245" width="165" height="20" as="geometry" />
        </mxCell>
        <mxCell id="msRCoOxnUzmI-tInsUp5-27" value="collection date: 17.03.23" style="strokeWidth=1;shadow=0;dashed=0;align=center;html=1;shape=mxgraph.mockup.forms.anchor;fontSize=12;fontColor=#666666;align=left;resizeWidth=1;spacingLeft=0;" vertex="1" parent="msRCoOxnUzmI-tInsUp5-11">
          <mxGeometry x="14.849999999999994" y="270" width="165" height="20" as="geometry" />
        </mxCell>
        <mxCell id="msRCoOxnUzmI-tInsUp5-28" value="ideally this is drop down choices" style="shape=callout;whiteSpace=wrap;html=1;perimeter=calloutPerimeter;" vertex="1" parent="msRCoOxnUzmI-tInsUp5-11">
          <mxGeometry x="190" y="260" width="120" height="80" as="geometry" />
        </mxCell>
        <mxCell id="msRCoOxnUzmI-tInsUp5-29" value="Click here to cancel order" style="strokeWidth=1;shadow=0;dashed=0;align=center;html=1;shape=mxgraph.mockup.forms.rrect;rSize=5;strokeColor=none;fontColor=#ffffff;fillColor=#66bbff;fontSize=16;fontStyle=1;" vertex="1" parent="msRCoOxnUzmI-tInsUp5-11">
          <mxGeometry x="14.849999999999994" y="400" width="220" height="29" as="geometry" />
        </mxCell>
      </root>
    </mxGraphModel>
  </diagram>
</mxfile>
